<svg xmlns="http://www.w3.org/2000/svg" version="1.0" width="512.000000pt" height="512.000000pt" viewBox="0 0 512.000000 512.000000" preserveAspectRatio="xMidYMid meet">

<g transform="translate(0.000000,512.000000) scale(0.100000,-0.100000)" fill="#007bff" stroke="none">
<path d="M38 5091 l-33 -29 0 -2502 0 -2502 33 -29 32 -29 1906 0 c1384 0 1911 3 1927 11 12 6 30 21 39 33 16 19 18 74 18 740 l0 718 544 942 c299 517 555 964 569 992 116 229 -5 508 -254 585 -151 47 -322 1 -427 -117 -28 -31 -124 -186 -237 -383 l-190 -330 -5 292 c-3 160 -7 293 -8 295 -1 1 -17 11 -34 22 -46 28 -82 25 -120 -9 l-33 -29 -5 -469 -5 -468 -552 -955 -551 -955 -38 -357 -38 -358 -1188 0 -1188 0 0 2360 0 2360 1779 0 1780 0 3 -171 3 -171 33 -29 c47 -42 103 -36 144 15 16 18 18 48 18 254 0 141 -4 241 -10 253 -28 52 82 49 -1974 49 l-1906 0 -32 -29z m4747 -1270 c53 -24 111 -90 126 -143 9 -32 9 -57 1 -96 -11 -52 -69 -162 -86 -162 -5 0 -91 48 -192 106 l-184 106 27 46 c47 84 75 114 127 138 61 29 126 31 181 5z m-63 -592 c-4 -17 -1432 -2491 -1447 -2508 -11 -11 -43 4 -199 94 -102 59 -186 109 -186 110 0 3 1404 2439 1456 2527 7 11 379 -210 376 -223z m-965 -3026 c-2 -2 -178 -2 -391 -1 l-387 3 178 129 c98 71 190 140 205 154 15 14 110 168 210 343 l183 317 3 -471 c1 -258 1 -472 -1 -474z m-777 436 c78 -45 139 -83 138 -85 -15 -14 -322 -233 -325 -231 -2 2 6 84 17 183 11 98 20 187 20 197 0 9 2 17 5 17 3 0 68 -37 145 -81z" fill="#007bff"/>
<path d="M3798 4241 c-27 -24 -33 -36 -33 -71 0 -72 76 -121 138 -89 96 49 61 189 -47 189 -14 0 -40 -13 -58 -29z" fill="#007bff"/>
<path d="M908 4031 c-27 -24 -33 -36 -33 -71 0 -35 6 -47 33 -71 l32 -29 1036 0 c743 0 1041 3 1057 11 51 26 73 91 47 140 -28 51 9 49 -1104 49 l-1036 0 -32 -29z" fill="#007bff"/>
<path d="M908 3471 c-27 -24 -33 -36 -33 -71 0 -35 6 -47 33 -71 l32 -29 1036 0 c743 0 1041 3 1057 11 51 26 73 91 47 140 -28 51 9 49 -1104 49 l-1036 0 -32 -29z" fill="#007bff"/>
<path d="M908 2911 c-27 -24 -33 -36 -33 -71 0 -35 6 -47 33 -71 l32 -29 365 0 365 0 32 29 c27 24 33 36 33 71 0 35 -6 47 -33 71 l-32 29 -365 0 -365 0 -32 -29z" fill="#007bff"/>
<path d="M2201 2926 c-67 -37 -65 -143 4 -174 36 -16 796 -17 828 -1 51 26 73 91 47 140 -26 47 -43 49 -462 49 -307 -1 -398 -4 -417 -14z" fill="#007bff"/>
<path d="M908 2351 c-27 -24 -33 -36 -33 -71 0 -35 6 -47 33 -71 l32 -29 1036 0 c743 0 1041 3 1057 11 51 26 73 91 47 140 -28 51 9 49 -1104 49 l-1036 0 -32 -29z" fill="#007bff"/>
<path d="M908 1791 c-27 -24 -33 -36 -33 -71 0 -35 6 -47 33 -71 l32 -29 290 0 290 0 32 29 c27 24 33 36 33 71 0 35 -6 47 -33 71 l-32 29 -290 0 -290 0 -32 -29z" fill="#007bff"/>
<path d="M1894 1810 c-56 -22 -72 -108 -30 -157 l24 -28 339 -3 c186 -2 349 0 361 3 57 14 90 92 62 146 -25 46 -48 49 -402 48 -183 0 -343 -4 -354 -9z" fill="#007bff"/>
<path d="M908 1231 c-27 -24 -33 -36 -33 -71 0 -35 6 -47 33 -71 l32 -29 466 0 c323 0 472 3 487 11 51 26 73 91 47 140 -26 48 -38 49 -534 49 l-466 0 -32 -29z" fill="#007bff"/>
</g>
</svg>