<svg width="136" height="32" viewBox="0 0 136 32" fill="none" xmlns="http://www.w3.org/2000/svg">
<path d="M0 10C0 4.47715 4.47715 0 10 0L32 0V22C32 27.5228 27.5228 32 22 32H0L0 10Z" fill="#007BFF"/>
<path d="M0 10C0 4.47715 4.47715 0 10 0L32 0V22C32 27.5228 27.5228 32 22 32H0L0 10Z" fill="#007BFF"/>
<path d="M16.5 6L18.6329 12.5643H25.535L19.9511 16.6213L22.084 23.1857L16.5 19.1287L10.916 23.1857L13.0489 16.6213L7.46496 12.5643H14.3671L16.5 6Z" fill="white"/>
<path d="M36.6523 24V7.08984H43.25C44.4062 7.08984 45.4023 7.30078 46.2383 7.72266C47.082 8.14453 47.7344 8.74219 48.1953 9.51562C48.6562 10.2891 48.8867 11.2031 48.8867 12.2578V12.2812C48.8867 13.4297 48.5938 14.4336 48.0078 15.293C47.4219 16.1523 46.6211 16.7578 45.6055 17.1094L49.3906 24H46.3555L42.9102 17.5078C42.8867 17.5078 42.8633 17.5078 42.8398 17.5078C42.8164 17.5078 42.793 17.5078 42.7695 17.5078H39.2891V24H36.6523ZM39.2891 15.3516H42.9922C44 15.3516 44.7812 15.0898 45.3359 14.5664C45.8906 14.0352 46.168 13.2891 46.168 12.3281V12.3047C46.168 11.3672 45.875 10.6328 45.2891 10.1016C44.7109 9.5625 43.918 9.29297 42.9102 9.29297H39.2891V15.3516ZM56.7673 24.2461C55.5486 24.2461 54.5017 23.9844 53.6267 23.4609C52.7517 22.9375 52.0798 22.1953 51.6111 21.2344C51.1423 20.2734 50.908 19.1406 50.908 17.8359V17.8242C50.908 16.5352 51.1423 15.4062 51.6111 14.4375C52.0877 13.4609 52.7517 12.7031 53.6033 12.1641C54.4627 11.625 55.4705 11.3555 56.6267 11.3555C57.783 11.3555 58.7791 11.6172 59.615 12.1406C60.4587 12.6562 61.1072 13.3828 61.5603 14.3203C62.0134 15.25 62.24 16.3398 62.24 17.5898V18.457H52.1853V16.6523H61.0095L59.7556 18.3281V17.3438C59.7556 16.4609 59.6228 15.7344 59.3572 15.1641C59.0916 14.5859 58.7244 14.1562 58.2556 13.875C57.7947 13.5859 57.2556 13.4414 56.6384 13.4414C56.0291 13.4414 55.4822 13.5898 54.9978 13.8867C54.5212 14.1836 54.1462 14.625 53.8728 15.2109C53.5994 15.7891 53.4627 16.5 53.4627 17.3438V18.3281C53.4627 19.1328 53.5994 19.8203 53.8728 20.3906C54.1462 20.9609 54.533 21.3984 55.033 21.7031C55.533 22.0078 56.1267 22.1602 56.8142 22.1602C57.322 22.1602 57.7673 22.0859 58.1502 21.9375C58.5408 21.7812 58.8611 21.5781 59.1111 21.3281C59.3689 21.0781 59.5486 20.8047 59.6502 20.5078L59.6736 20.4141H62.1111L62.0759 20.543C61.9744 21.0117 61.783 21.4688 61.5017 21.9141C61.2283 22.3516 60.865 22.75 60.4119 23.1094C59.9587 23.4609 59.4275 23.7383 58.8181 23.9414C58.2087 24.1445 57.5252 24.2461 56.7673 24.2461ZM67.5894 24L63.1245 11.6016H65.8316L68.937 21.5039H69.0191L72.1128 11.6016H74.773L70.3316 24H67.5894ZM80.8723 24.2461C79.9583 24.2461 79.1809 24.0625 78.5403 23.6953C77.9075 23.3203 77.4231 22.7891 77.0872 22.1016C76.7591 21.4062 76.595 20.582 76.595 19.6289V11.6016H79.138V19.125C79.138 20.0703 79.3528 20.7969 79.7825 21.3047C80.2122 21.8047 80.8723 22.0547 81.763 22.0547C82.2161 22.0547 82.6223 21.9805 82.9817 21.832C83.3489 21.6758 83.6614 21.457 83.9192 21.1758C84.1848 20.8945 84.3841 20.5586 84.5169 20.168C84.6497 19.7695 84.7161 19.3281 84.7161 18.8438V11.6016H87.2708V24H84.7161V22.1367H84.6458C84.427 22.5508 84.1419 22.918 83.7903 23.2383C83.4388 23.5586 83.0169 23.8086 82.5247 23.9883C82.0403 24.1602 81.4895 24.2461 80.8723 24.2461ZM90.5108 24V7.08984H93.1475V21.7266H101.034V24H90.5108ZM103.501 24V11.6016H106.055V24H103.501ZM104.778 9.63281C104.364 9.63281 104.009 9.48828 103.712 9.19922C103.423 8.91016 103.278 8.5625 103.278 8.15625C103.278 7.74219 103.423 7.39063 103.712 7.10156C104.009 6.8125 104.364 6.66797 104.778 6.66797C105.2 6.66797 105.555 6.8125 105.845 7.10156C106.134 7.39063 106.278 7.74219 106.278 8.15625C106.278 8.5625 106.134 8.91016 105.845 9.19922C105.555 9.48828 105.2 9.63281 104.778 9.63281ZM109.085 24V11.6016H111.639V13.4766H111.721C112.042 12.8359 112.514 12.3242 113.139 11.9414C113.772 11.5508 114.553 11.3555 115.483 11.3555C116.85 11.3555 117.905 11.7656 118.647 12.5859C119.397 13.4062 119.772 14.5352 119.772 15.9727V24H117.217V16.4766C117.217 15.5234 116.999 14.7969 116.561 14.2969C116.124 13.7969 115.463 13.5469 114.581 13.5469C113.987 13.5469 113.467 13.6797 113.022 13.9453C112.585 14.2109 112.245 14.5859 112.003 15.0703C111.76 15.5469 111.639 16.1094 111.639 16.7578V24H109.085ZM122.778 24V6.9375H125.332V24H122.778ZM130.606 24L126.2 18.2344L127.899 16.4531L133.571 24H130.606ZM124.922 19.9453L124.899 16.875H125.414L130.371 11.6016H133.36L127.582 17.625L127.09 17.7656L124.922 19.9453Z" fill="#007BFF"/>
</svg>
