<?xml version="1.0"?>
<svg version="1.1" xmlns="http://www.w3.org/2000/svg" width="300" height="100" style=""><path fill="#ffffff" d="M17.3828125,36.484375q0-1.8359375,0.44921875-2.67578125t1.2890625-1.171875t2.03125-0.25390625t2.79296875,0.078125q4.0625,0,8.203125,1.25t7.4609375,3.65234375t5.3515625,5.91796875t2.03125,8.0859375q0,3.046875-0.87890625,5.76171875t-2.48046875,5.078125t-3.75,4.31640625t-4.7265625,3.3984375q1.0546875,1.0546875,2.734375,3.73046875t3.3203125,5.703125t2.91015625,5.87890625t1.50390625,4.296875l-0.46875,0.703125q-1.0546875,0.625-2.5390625,0.6640625q-0.703125,0-1.8359375-0.17578125t-1.4453125-1.03515625q-1.6015625-4.4921875-3.49609375-9.2578125t-4.66796875-8.59375l0-0.078125q-0.9765625,0.390625-1.93359375,0.76171875t-1.93359375,0.68359375q0.3125,4.3359375,0.64453125,8.53515625t0.33203125,8.49609375q0,0.546875-0.52734375,0.87890625t-1.19140625,0.52734375t-1.34765625,0.2734375t-1.11328125,0.078125q-0.390625,0-1.11328125-0.078125t-1.38671875-0.2734375t-1.15234375-0.56640625t-0.48828125-0.99609375q0-4.3359375-0.1953125-8.65234375t-0.4296875-8.61328125q-1.2109375-0.78125-1.2109375-2.03125q0-0.9765625,0.9375-1.328125q-0.46875-8.2421875-1.07421875-16.4453125t-0.60546875-16.5234375z M24.453125,35.2734375q0.546875,8.4765625,1.23046875,16.7578125t1.30859375,16.7578125q2.734375-0.78125,5.09765625-2.71484375t4.08203125-4.35546875t2.67578125-5.2734375t0.95703125-5.6640625q0-3.125-1.25-5.99609375t-3.3203125-5.01953125q-2.109375-2.1484375-4.84375-3.359375q-2.421875-1.0546875-5.078125-1.0546875l-0.703125,0z M54.987109375,77.03125q0-2.734375,0.60546875-6.4453125t2.05078125-7.03125t3.80859375-5.64453125t5.95703125-2.32421875q3.359375,0,5.0390625,1.93359375t1.6796875,5.21484375q0,2.1484375-0.80078125,4.70703125t-2.28515625,4.84375t-3.515625,3.80859375t-4.53125,1.5234375l-1.015625-0.078125q0,1.0546875,0.3125,2.83203125t0.91796875,3.53515625t1.5625,3.0859375t2.32421875,1.328125q1.9921875,0,3.828125-1.6015625t3.4765625-3.5546875t3.046875-3.5546875t2.578125-1.6015625q0.625,0,1.2890625,0.1953125t0.7421875,1.09375q0,0.546875-0.29296875,0.8984375t-0.52734375,0.78125q-1.2109375,2.0703125-2.63671875,3.9453125t-3.22265625,3.3984375t-3.92578125,2.40234375t-4.70703125,0.87890625q-3.359375,0-5.5859375-1.19140625t-3.59375-3.203125t-1.97265625-4.6484375t-0.60546875-5.52734375z M61.979296875,74.0625l1.09375,0.9765625q0.78125,0.703125,1.5625,0.3125t1.40625-1.42578125t1.15234375-2.55859375t0.9375-3.125t0.60546875-3.125t0.1953125-2.5390625l0-1.328125t-0.1171875-1.40625t-0.41015625-1.11328125t-0.91796875-0.56640625q-0.1953125-0.0390625-0.3515625-0.0390625q-1.328125,0-2.265625,1.6796875q-1.015625,1.875-1.640625,4.55078125t-0.8984375,5.48828125t-0.3515625,4.21875z M86.02890625,60.8984375q0-0.3125,0.37109375-0.56640625t0.83984375-0.37109375t0.95703125-0.15625t0.72265625-0.0390625q1.7578125,0,3.0078125,1.5625t2.16796875,4.00390625t1.5625,5.390625t1.23046875,5.87890625t1.15234375,5.37109375t1.26953125,3.76953125q1.2109375-2.3828125,2.20703125-5.7421875t1.8359375-6.953125t1.484375-7.08984375t1.03515625-6.11328125q0.15625-0.703125,0.9765625-0.87890625t1.3671875-0.17578125q0.8984375,0,1.5625,0.25390625t0.6640625,1.11328125q0,1.4453125-0.3515625,3.92578125t-0.95703125,5.56640625t-1.40625,6.328125t-1.71875,6.15234375t-1.9140625,5.15625t-1.97265625,3.18359375q-0.46875,0.546875-1.46484375,0.76171875t-1.66015625,0.21484375q-2.3046875,0-3.828125-1.2109375l0,0.078125q-2.3828125-2.2265625-3.515625-5.4296875t-1.640625-6.6796875t-0.91796875-6.9140625t-1.38671875-6.25q-0.15625-0.3125-0.390625-0.91796875t-0.546875-1.2109375t-0.52734375-1.15234375t-0.21484375-0.859375z M116.836328125,74.4921875q0-3.59375,0.83984375-7.05078125t1.42578125-6.89453125q0.15625-0.8984375,1.23046875-1.11328125t1.81640625-0.21484375q1.2890625,0,2.0703125,0.390625q0.3125,0.15625,0.5859375,0.3515625t0.2734375,0.5078125q0,3.359375-0.80078125,6.5625t-0.80078125,6.796875q0,1.2109375,0.17578125,2.28515625t0.33203125,2.12890625l0.234375,1.1328125q0,0.3125,0.0390625,0.546875t0.1171875,0.546875q0,0.703125-0.99609375,0.95703125t-1.73828125,0.25390625q-1.1328125,0-2.08984375-0.44921875t-1.50390625-1.54296875l-0.546875-1.1328125q-0.46875-0.8984375-0.46875-2.01171875t-0.1953125-2.05078125z M119.336328125,50.9765625l0-0.7421875q0-1.8359375,0.91796875-3.28125t2.75390625-1.4453125q0.234375,0,0.44921875,0.0390625t0.44921875,0.0390625q0.46875,0.078125,1.23046875,0.37109375t0.76171875,0.91796875l0,0.078125q-0.15625,0.3125-0.1953125,0.64453125t-0.1953125,0.56640625l0.078125-0.078125q-0.46875,1.2109375-0.76171875,1.953125t-0.64453125,1.19140625t-0.87890625,0.64453125t-1.50390625,0.1953125q-0.15625,0-0.546875-0.0390625t-0.83984375-0.15625t-0.76171875-0.3125t-0.3125-0.5859375z M133.89375,77.03125q0-2.734375,0.60546875-6.4453125t2.05078125-7.03125t3.80859375-5.64453125t5.95703125-2.32421875q3.359375,0,5.0390625,1.93359375t1.6796875,5.21484375q0,2.1484375-0.80078125,4.70703125t-2.28515625,4.84375t-3.515625,3.80859375t-4.53125,1.5234375l-1.015625-0.078125q0,1.0546875,0.3125,2.83203125t0.91796875,3.53515625t1.5625,3.0859375t2.32421875,1.328125q1.9921875,0,3.828125-1.6015625t3.4765625-3.5546875t3.046875-3.5546875t2.578125-1.6015625q0.625,0,1.2890625,0.1953125t0.7421875,1.09375q0,0.546875-0.29296875,0.8984375t-0.52734375,0.78125q-1.2109375,2.0703125-2.63671875,3.9453125t-3.22265625,3.3984375t-3.92578125,2.40234375t-4.70703125,0.87890625q-3.359375,0-5.5859375-1.19140625t-3.59375-3.203125t-1.97265625-4.6484375t-0.60546875-5.52734375z M140.8859375,74.0625l1.09375,0.9765625q0.78125,0.703125,1.5625,0.3125t1.40625-1.42578125t1.15234375-2.55859375t0.9375-3.125t0.60546875-3.125t0.1953125-2.5390625l0-1.328125t-0.1171875-1.40625t-0.41015625-1.11328125t-0.91796875-0.56640625q-0.1953125-0.0390625-0.3515625-0.0390625q-1.328125,0-2.265625,1.6796875q-1.015625,1.875-1.640625,4.55078125t-0.8984375,5.48828125t-0.3515625,4.21875z M166.615234375,78.5546875q0-1.4453125,0.05859375-4.23828125t0.41015625-5.68359375t1.15234375-5.234375t2.40234375-3.0078125q0.390625-0.15625,1.26953125-0.2734375t1.7578125-0.078125t1.5625,0.3125t0.68359375,1.015625q0,0.15625-0.15625,0.4296875t-0.8203125,0.859375q-1.2109375,3.359375-1.484375,6.6796875t-0.2734375,6.8359375q0,2.0703125,0.13671875,4.140625t0.44921875,4.1796875q0.625-0.8984375,1.26953125-2.6953125t1.3671875-3.92578125t1.484375-4.31640625t1.71875-3.984375t2.109375-2.96875t2.59765625-1.171875q1.6015625,0,2.67578125,2.01171875t1.9921875,4.6484375t1.71875,5.3515625t1.93359375,4.16015625q0.546875-0.546875,0.87890625-1.42578125t0.52734375-1.89453125t0.234375-2.01171875t0.0390625-1.69921875q0-1.7578125-0.52734375-3.80859375t-1.11328125-3.84765625t-1.11328125-3.02734375t-0.52734375-1.42578125q0-0.3125,0.33203125-0.5078125t0.76171875-0.3125t0.87890625-0.15625t0.68359375-0.0390625q1.4453125,0,2.48046875,1.6015625t1.640625,3.7109375t0.87890625,4.27734375t0.2734375,3.37890625q0,1.5234375-0.234375,3.2421875t-0.87890625,3.18359375t-1.89453125,2.44140625t-3.1640625,0.9765625q-2.3046875,0-3.7890625-1.2890625t-2.40234375-3.125t-1.4453125-4.00390625t-0.99609375-3.92578125q-0.8984375,2.0703125-1.640625,5.234375t-1.875,6.2109375t-2.890625,5.1953125t-4.5703125,2.1484375t-4.00390625-1.38671875t-1.89453125-3.80859375l0.078125,0.078125q-0.46875-1.7578125-0.60546875-3.515625t-0.13671875-3.515625z M207.03203125,83.671875q-0.0390625-1.171875-0.0390625-2.34375q0-3.671875,0.390625-7.3828125q0.46875-4.921875,0.625-9.6875q0.15625-5.5859375,0.46875-11.6015625q0.1953125-3.28125,0.1953125-6.484375q0-2.6171875-0.1171875-5.1953125q0.390625-0.8984375,1.03515625-1.2109375t1.62109375-0.3125q0.46875,0,0.99609375,0.078125t0.91796875,0.390625q0.546875,0.078125,1.34765625,0.15625t1.23046875,0.46875q0.15625,0.234375,0.80078125,1.6015625t1.5234375,3.3203125t1.8359375,4.23828125t1.8359375,4.3359375t1.5234375,3.61328125t0.80078125,1.953125q3.671875-6.640625,7.1875-13.65234375t7.6953125-13.22265625q0.390625-0.546875,1.34765625-0.80078125t1.58203125-0.25390625q1.6796875,0,2.44140625,0.80078125t0.99609375,2.05078125q0.15625,0.78125,0.1953125,1.6796875q0.0390625,0.46875-0.0390625,0.9765625q-0.15625,1.4453125-0.15625,2.734375q0,9.1015625-0.625,18.06640625t-1.1328125,18.10546875q-0.078125,1.875-0.078125,3.90625t0.078125,4.21875q0.0390625,0.78125,0.0390625,1.5234375q0,3.4375-0.5859375,6.40625q-0.546875,0.8984375-1.796875,1.1328125t-2.109375,0.234375q-1.8359375,0-3.515625-0.859375l-0.4296875-0.5078125l-0.15625-0.625t-0.078125-0.625q0-5.6640625,0.41015625-11.40625t0.91796875-11.46484375t1.07421875-11.42578125t0.95703125-11.40625q-2.3046875,3.828125-4.47265625,7.79296875t-4.08203125,8.06640625q-0.703125,1.6015625-1.34765625,3.4375t-1.54296875,3.28125q-0.46875,0.703125-1.58203125,0.859375t-1.93359375,0.15625q-0.78125,0-1.62109375-0.2734375t-1.15234375-1.171875q-1.4453125-4.4140625-3.0859375-8.6328125t-3.3203125-8.5546875q0,2.890625,0.1171875,7.48046875t0.1171875,9.51171875t-0.15625,9.4140625t-0.7421875,7.109375q-0.15625,0.9765625-1.26953125,1.2109375t-1.93359375,0.234375q-0.625,0-1.19140625-0.078125t-1.11328125-0.3125z M253.425390625,77.03125q0-2.734375,0.60546875-6.4453125t2.05078125-7.03125t3.80859375-5.64453125t5.95703125-2.32421875q3.359375,0,5.0390625,1.93359375t1.6796875,5.21484375q0,2.1484375-0.80078125,4.70703125t-2.28515625,4.84375t-3.515625,3.80859375t-4.53125,1.5234375l-1.015625-0.078125q0,1.0546875,0.3125,2.83203125t0.91796875,3.53515625t1.5625,3.0859375t2.32421875,1.328125q1.9921875,0,3.828125-1.6015625t3.4765625-3.5546875t3.046875-3.5546875t2.578125-1.6015625q0.625,0,1.2890625,0.1953125t0.7421875,1.09375q0,0.546875-0.29296875,0.8984375t-0.52734375,0.78125q-1.2109375,2.0703125-2.63671875,3.9453125t-3.22265625,3.3984375t-3.92578125,2.40234375t-4.70703125,0.87890625q-3.359375,0-5.5859375-1.19140625t-3.59375-3.203125t-1.97265625-4.6484375t-0.60546875-5.52734375z M260.417578125,74.0625l1.09375,0.9765625q0.78125,0.703125,1.5625,0.3125t1.40625-1.42578125t1.15234375-2.55859375t0.9375-3.125t0.60546875-3.125t0.1953125-2.5390625l0-1.328125t-0.1171875-1.40625t-0.41015625-1.11328125t-0.91796875-0.56640625q-0.1953125-0.0390625-0.3515625-0.0390625q-1.328125,0-2.265625,1.6796875q-1.015625,1.875-1.640625,4.55078125t-0.8984375,5.48828125t-0.3515625,4.21875z"/><path fill="#" d=""/></svg>
